<?xml version="1.0" encoding="utf-8"?>
<!-- Generator: Adobe Illustrator 16.0.0, SVG Export Plug-In . SVG Version: 6.00 Build 0)  -->
<!DOCTYPE svg PUBLIC "-//W3C//DTD SVG 1.1//EN" "http://www.w3.org/Graphics/SVG/1.1/DTD/svg11.dtd">
<svg version="1.1" id="Ñëîé_1" xmlns="http://www.w3.org/2000/svg" xmlns:xlink="http://www.w3.org/1999/xlink" x="0px" y="0px"
	 width="316.846px" height="316.846px" viewBox="0 0 316.846 316.846" enable-background="new 0 0 316.846 316.846"
	 xml:space="preserve">
<path id="XMLID_430_" fill="#494960" d="M46.111,61.778l97.041,97.041l-97.041,97.041c-4.22,4.22-4.207,11.055,0.007,15.268
	s11.04,4.218,15.26-0.001l97.041-97.041l97.047,97.048c4.214,4.213,11.047,4.214,15.268-0.006
	c4.207-4.208,4.213-11.047-0.001-15.261l-97.048-97.048l97.041-97.041c4.215-4.214,4.216-11.045,0.002-15.259
	c-4.214-4.213-11.054-4.221-15.268-0.007l-97.041,97.041L61.378,46.512c-4.214-4.214-11.051-4.207-15.26,0.001
	C41.899,50.732,41.897,57.564,46.111,61.778z"/>
</svg>
