<?xml version="1.0" encoding="utf-8"?>
<!-- Generator: Adobe Illustrator 16.0.0, SVG Export Plug-In . SVG Version: 6.00 Build 0)  -->
<!DOCTYPE svg PUBLIC "-//W3C//DTD SVG 1.1//EN" "http://www.w3.org/Graphics/SVG/1.1/DTD/svg11.dtd">
<svg version="1.1" id="Ñëîé_1" xmlns="http://www.w3.org/2000/svg" xmlns:xlink="http://www.w3.org/1999/xlink" x="0px" y="0px"
	 width="316.846px" height="316.846px" viewBox="0 0 316.846 316.846" enable-background="new 0 0 316.846 316.846"
	 xml:space="preserve">
<path id="XMLID_20_" fill="#494960" d="M62.791,111.148c0,50.502,86.089,177.017,89.756,182.376
	c1.327,1.944,3.528,3.099,5.872,3.099c2.356,0,4.554-1.155,5.879-3.099c3.66-5.359,89.756-131.874,89.756-182.376
	c0-52.732-42.896-95.634-95.635-95.634C105.692,15.514,62.791,58.417,62.791,111.148z M239.819,111.148
	c0,39.03-61.848,135.905-81.416,165.58c-27.238-41.088-81.378-130.072-81.378-165.58c0-44.886,36.514-81.394,81.394-81.394
	C203.306,29.754,239.819,66.263,239.819,111.148z"/>
<path id="XMLID_21_" fill="#494960" d="M97.487,111.588c0,33.363,27.135,60.493,60.492,60.493c33.356,0,60.492-27.129,60.492-60.493
	c0-33.351-27.136-60.486-60.492-60.486C124.622,51.103,97.487,78.238,97.487,111.588z M204.237,111.588
	c0,25.511-20.747,46.265-46.258,46.265c-25.512,0-46.259-20.753-46.259-46.265c0-25.504,20.747-46.252,46.259-46.252
	C183.49,65.336,204.237,86.084,204.237,111.588z"/>
</svg>
