<?xml version="1.0" encoding="utf-8"?>
<!-- Generator: Adobe Illustrator 16.0.0, SVG Export Plug-In . SVG Version: 6.00 Build 0)  -->
<!DOCTYPE svg PUBLIC "-//W3C//DTD SVG 1.1//EN" "http://www.w3.org/Graphics/SVG/1.1/DTD/svg11.dtd">
<svg version="1.1" id="Ñëîé_1" xmlns="http://www.w3.org/2000/svg" xmlns:xlink="http://www.w3.org/1999/xlink" x="0px" y="0px"
	 width="316.846px" height="316.846px" viewBox="0 0 316.846 316.846" enable-background="new 0 0 316.846 316.846"
	 xml:space="preserve">
<path id="XMLID_17_" fill="#494960" d="M136.401,232.241v17.944h-26.516c-3.664,0-6.631,2.967-6.631,6.631
	c0,3.654,2.967,6.626,6.631,6.626h26.516v27.346c0,3.654,2.967,6.626,6.625,6.626c3.66,0,6.627-2.972,6.627-6.626v-27.346h26.514
	c3.666,0,6.633-2.972,6.633-6.626c0-3.664-2.967-6.631-6.633-6.631h-26.514v-17.944c46.867-3.409,83.959-42.601,83.959-90.319
	c0-22.877-8.537-43.783-22.572-59.746l40.111-40.112v39.942c0,3.653,2.973,6.626,6.633,6.626c3.658,0,6.625-2.973,6.625-6.626
	V26.058c0-0.432-0.043-0.863-0.127-1.295c-0.043-0.196-0.111-0.378-0.17-0.569c-0.064-0.224-0.117-0.447-0.209-0.671
	c-0.09-0.219-0.219-0.421-0.336-0.629c-0.09-0.171-0.164-0.347-0.271-0.512c-0.49-0.724-1.113-1.353-1.838-1.832
	c-0.158-0.106-0.33-0.181-0.494-0.267c-0.213-0.122-0.422-0.25-0.65-0.346c-0.213-0.091-0.438-0.139-0.66-0.208
	c-0.191-0.053-0.373-0.128-0.576-0.17c-0.426-0.086-0.861-0.128-1.293-0.128h-55.943c-3.658,0-6.625,2.972-6.625,6.626
	c0,3.664,2.967,6.631,6.625,6.631h39.943l-40.199,40.198c-15.803-13.433-36.246-21.556-58.559-21.556
	c-49.949,0-90.59,40.635-90.59,90.591C52.437,189.641,89.534,228.832,136.401,232.241z M143.026,64.588
	c42.645,0,77.328,34.691,77.328,77.334c0,42.638-34.684,77.328-77.328,77.328c-42.643,0-77.332-34.69-77.332-77.328
	C65.694,99.279,100.384,64.588,143.026,64.588z"/>
</svg>
