<?xml version="1.0" encoding="utf-8"?>
<!-- Generator: Adobe Illustrator 16.0.0, SVG Export Plug-In . SVG Version: 6.00 Build 0)  -->
<!DOCTYPE svg PUBLIC "-//W3C//DTD SVG 1.1//EN" "http://www.w3.org/Graphics/SVG/1.1/DTD/svg11.dtd">
<svg version="1.1" id="Layer_1" xmlns="http://www.w3.org/2000/svg" xmlns:xlink="http://www.w3.org/1999/xlink" x="0px" y="0px"
	 width="425.197px" height="68.032px" viewBox="0 0 425.197 68.032" enable-background="new 0 0 425.197 68.032"
	 xml:space="preserve">
<g>
	<defs>
		<rect id="SVGID_1_" x="3.885" y="6.535" width="417.425" height="54.962"/>
	</defs>
	<clipPath id="SVGID_2_">
		<use xlink:href="#SVGID_1_"  overflow="visible"/>
	</clipPath>
	<path clip-path="url(#SVGID_2_)" fill="#3B3D67" d="M20.756,14.517c0,4.075-3.301,7.374-7.374,7.374
		c-4.073,0-7.377-3.299-7.377-7.374c0-4.071,3.304-7.374,7.377-7.374C17.455,7.143,20.756,10.445,20.756,14.517"/>
	<path clip-path="url(#SVGID_2_)" fill="#3B3D67" d="M40.618,23.964c0,4.075-3.303,7.374-7.378,7.374
		c-4.072,0-7.373-3.299-7.373-7.374c0-4.071,3.301-7.374,7.373-7.374C37.315,16.59,40.618,19.893,40.618,23.964"/>
	<path clip-path="url(#SVGID_2_)" fill="#3B3D67" d="M66.743,13.91c0,4.075-3.301,7.374-7.374,7.374
		c-4.076,0-7.377-3.299-7.377-7.374c0-4.075,3.301-7.374,7.377-7.374C63.442,6.536,66.743,9.835,66.743,13.91"/>
</g>
<polygon fill="#3B3D67" points="3.886,23.965 3.886,30.054 9.863,30.054 9.863,48.564 3.886,48.564 3.886,55.409 23.36,55.409 
	23.36,48.564 16.994,48.564 16.994,29.958 23.36,29.958 23.36,23.965 "/>
<polygon fill="#3B3D67" points="39.363,31.339 33.678,38.358 33.239,38.358 27.023,31.339 18.829,31.339 29.817,45.094 
	29.817,55.02 23.358,55.02 23.358,61.498 43.028,61.498 43.028,54.827 37.049,54.827 37.049,45.186 48.137,31.339 "/>
<polygon fill="#3B3D67" points="43.607,23.964 75.804,23.964 75.804,29.571 69.442,29.571 69.442,48.563 75.324,48.563 
	75.324,54.732 62.887,54.732 62.887,29.571 56.233,29.571 56.233,54.732 43.989,54.732 43.989,48.468 49.581,48.468 49.581,29.474 
	43.607,29.474 "/>
<rect x="89.048" y="24.322" fill="#3B3D67" width="2.336" height="10.749"/>
<g>
	<defs>
		<rect id="SVGID_3_" x="3.885" y="6.535" width="417.425" height="54.962"/>
	</defs>
	<clipPath id="SVGID_4_">
		<use xlink:href="#SVGID_3_"  overflow="visible"/>
	</clipPath>
	<path clip-path="url(#SVGID_4_)" fill="#3B3D67" d="M100.199,35.073l-3.213-5.182c-0.047-0.063-0.16-0.289-0.402-0.677
		c-0.516-0.871-0.565-0.951-0.743-1.292c-0.048-0.112-0.097-0.24-0.208-0.451c0.064,0.757,0.095,1.856,0.095,3.018l0.016,4.584
		h-2.26v-10.75h2.389l3.115,5.068c0.724,1.21,1.082,1.791,1.422,2.485c-0.051-0.483-0.065-0.534-0.065-1.162l-0.017-0.902
		l-0.016-1.016l-0.014-4.473h2.258v10.75H100.199z"/>
	<path clip-path="url(#SVGID_4_)" fill="#3B3D67" d="M103.914,35.073v-1.872l3.018-3.679l-2.856-3.423v-1.775h8.506v1.985h-3.583
		h-0.437c-0.402,0-0.79-0.015-1.501-0.049c0.583,0.599,0.776,0.792,0.969,1.034l1.87,2.228l-1.886,2.338
		c-0.113,0.129-0.29,0.341-0.548,0.616c-0.146,0.144-0.372,0.37-0.645,0.675c0.87-0.03,1.339-0.063,1.741-0.063h0.404h4.053v1.985
		H103.914z"/>
</g>
<polygon fill="#3B3D67" points="119.168,26.309 119.168,35.073 116.829,35.073 116.829,26.309 113.584,26.309 113.584,24.323 
	122.429,24.323 122.429,26.309 "/>
<rect x="123.69" y="24.322" fill="#3B3D67" width="2.34" height="10.749"/>
<polygon fill="#3B3D67" points="132.859,26.309 132.859,35.073 130.519,35.073 130.519,26.309 127.273,26.309 127.273,24.323 
	136.119,24.323 136.119,26.309 "/>
<g>
	<defs>
		<rect id="SVGID_5_" x="3.885" y="6.535" width="417.425" height="54.962"/>
	</defs>
	<clipPath id="SVGID_6_">
		<use xlink:href="#SVGID_5_"  overflow="visible"/>
	</clipPath>
	<path clip-path="url(#SVGID_6_)" fill="#3B3D67" d="M142.205,35.331c-3.196,0-5.327-2.245-5.327-5.633
		c0-3.404,2.114-5.631,5.344-5.631c3.147,0,5.262,2.274,5.262,5.631C147.484,33.07,145.369,35.331,142.205,35.331 M142.189,26.018
		c-1.792,0-2.938,1.421-2.938,3.665c0,2.305,1.113,3.695,2.971,3.695c1.792,0,2.905-1.404,2.905-3.712
		C145.127,27.406,144.014,26.018,142.189,26.018"/>
	<path clip-path="url(#SVGID_6_)" fill="#3B3D67" d="M153.538,30.925v4.147h-2.34v-4.18l-4.018-6.569h2.679l1.663,2.857
		c0.259,0.388,0.612,1.212,0.87,1.776c0.308-0.694,0.664-1.503,0.904-1.872l1.615-2.761h2.628L153.538,30.925z"/>
</g>
<polygon fill="#3B3D67" points="163.5,26.309 163.5,35.073 161.16,35.073 161.16,26.309 157.916,26.309 157.916,24.323 
	166.76,24.323 166.76,26.309 "/>
<g>
	<defs>
		<rect id="SVGID_7_" x="3.885" y="6.535" width="417.425" height="54.962"/>
	</defs>
	<clipPath id="SVGID_8_">
		<use xlink:href="#SVGID_7_"  overflow="visible"/>
	</clipPath>
	<path clip-path="url(#SVGID_8_)" fill="#3B3D67" d="M172.846,35.331c-3.196,0-5.327-2.245-5.327-5.633
		c0-3.404,2.114-5.631,5.344-5.631c3.147,0,5.262,2.274,5.262,5.631C178.125,33.07,176.01,35.331,172.846,35.331 M172.83,26.018
		c-1.792,0-2.938,1.421-2.938,3.665c0,2.305,1.113,3.695,2.971,3.695c1.792,0,2.905-1.404,2.905-3.712
		C175.768,27.406,174.655,26.018,172.83,26.018"/>
	<path clip-path="url(#SVGID_8_)" fill="#3B3D67" d="M189.28,30.925v4.147h-2.34v-4.18l-4.018-6.569h2.679l1.663,2.857
		c0.259,0.388,0.612,1.212,0.87,1.776c0.306-0.694,0.664-1.503,0.904-1.872l1.615-2.761h2.628L189.28,30.925z"/>
</g>
<polygon fill="#3B3D67" points="196.432,26.309 196.432,35.073 194.092,35.073 194.092,24.323 201.661,24.323 201.661,26.309 "/>
<polygon fill="#3B3D67" points="203.036,35.073 203.036,24.323 211.09,24.323 211.09,26.309 205.376,26.309 205.376,28.602 
	210.622,28.602 210.622,30.44 205.376,30.44 205.376,33.087 211.203,33.087 211.203,35.073 "/>
<rect x="212.834" y="24.322" fill="#3B3D67" width="2.34" height="10.749"/>
<g>
	<defs>
		<rect id="SVGID_9_" x="3.885" y="6.535" width="417.425" height="54.962"/>
	</defs>
	<clipPath id="SVGID_10_">
		<use xlink:href="#SVGID_9_"  overflow="visible"/>
	</clipPath>
	<path clip-path="url(#SVGID_10_)" fill="#3B3D67" d="M224.247,35.073l-0.873-2.404h-3.983l-0.89,2.404h-2.403l4.083-10.781h2.438
		l4.079,10.781H224.247z M222.118,29.003c-0.388-1.063-0.517-1.534-0.727-2.34c-0.177,0.743-0.371,1.307-0.76,2.34l-0.691,1.952
		h2.872L222.118,29.003z"/>
	<path clip-path="url(#SVGID_10_)" fill="#3B3D67" d="M226.88,35.073v-1.872l3.018-3.679l-2.855-3.423v-1.775h8.504v1.985h-3.581
		h-0.437c-0.402,0-0.79-0.015-1.501-0.049c0.583,0.599,0.775,0.792,0.969,1.034l1.87,2.228l-1.887,2.338
		c-0.112,0.129-0.29,0.341-0.548,0.616c-0.146,0.144-0.372,0.37-0.645,0.675c0.87-0.03,1.339-0.063,1.741-0.063h0.403h4.054v1.985
		H226.88z"/>
</g>
<polygon fill="#3B3D67" points="246.591,26.309 246.591,35.073 244.251,35.073 244.251,26.309 241.007,26.309 241.007,24.323 
	249.851,24.323 249.851,26.309 "/>
<g>
	<defs>
		<rect id="SVGID_11_" x="3.885" y="6.535" width="417.425" height="54.962"/>
	</defs>
	<clipPath id="SVGID_12_">
		<use xlink:href="#SVGID_11_"  overflow="visible"/>
	</clipPath>
	<path clip-path="url(#SVGID_12_)" fill="#3B3D67" d="M255.938,35.331c-3.196,0-5.327-2.245-5.327-5.633
		c0-3.404,2.114-5.631,5.344-5.631c3.147,0,5.262,2.274,5.262,5.631C261.216,33.07,259.102,35.331,255.938,35.331 M255.921,26.018
		c-1.792,0-2.938,1.421-2.938,3.665c0,2.305,1.113,3.695,2.971,3.695c1.792,0,2.905-1.404,2.905-3.712
		C258.859,27.406,257.746,26.018,255.921,26.018"/>
	<path clip-path="url(#SVGID_12_)" fill="#3B3D67" d="M267.27,30.925v4.147h-2.34v-4.18l-4.019-6.569h2.679l1.663,2.857
		c0.26,0.388,0.614,1.212,0.872,1.776c0.307-0.694,0.662-1.503,0.902-1.872l1.615-2.761h2.628L267.27,30.925z"/>
</g>
<polygon fill="#3B3D67" points="283.284,35.073 283.284,26.309 278.878,26.309 278.878,35.073 276.538,35.073 276.538,24.323 
	285.626,24.323 285.626,35.073 "/>
<g>
	<defs>
		<rect id="SVGID_13_" x="3.885" y="6.535" width="417.425" height="54.962"/>
	</defs>
	<clipPath id="SVGID_14_">
		<use xlink:href="#SVGID_13_"  overflow="visible"/>
	</clipPath>
	<path clip-path="url(#SVGID_14_)" fill="#3B3D67" d="M294.682,35.073l-0.87-2.404h-3.986l-0.889,2.404h-2.404l4.083-10.781h2.438
		l4.083,10.781H294.682z M292.553,29.003c-0.388-1.063-0.517-1.534-0.727-2.34c-0.176,0.743-0.371,1.307-0.759,2.34l-0.692,1.952
		h2.872L292.553,29.003z"/>
</g>
<rect x="298.074" y="24.322" fill="#3B3D67" width="2.336" height="10.749"/>
<g>
	<defs>
		<rect id="SVGID_15_" x="3.885" y="6.535" width="417.425" height="54.962"/>
	</defs>
	<clipPath id="SVGID_16_">
		<use xlink:href="#SVGID_15_"  overflow="visible"/>
	</clipPath>
	<path clip-path="url(#SVGID_16_)" fill="#3B3D67" d="M301.77,35.073l0.017-1.162l3.632-9.619h2.439l3.646,9.619v1.162H301.77z
		 M307.356,29.003c-0.389-1.063-0.518-1.534-0.728-2.34c-0.176,0.743-0.404,1.293-0.759,2.34l-1.501,4.358h4.469L307.356,29.003z"/>
</g>
<rect x="312.874" y="24.322" fill="#3B3D67" width="2.34" height="10.749"/>
<g>
	<defs>
		<rect id="SVGID_17_" x="3.885" y="6.535" width="417.425" height="54.962"/>
	</defs>
	<clipPath id="SVGID_18_">
		<use xlink:href="#SVGID_17_"  overflow="visible"/>
	</clipPath>
	<path clip-path="url(#SVGID_18_)" fill="#3B3D67" d="M322.158,35.331c-3.196,0-5.327-2.245-5.327-5.633
		c0-3.404,2.114-5.631,5.344-5.631c3.147,0,5.262,2.274,5.262,5.631C327.437,33.07,325.322,35.331,322.158,35.331 M322.142,26.018
		c-1.792,0-2.938,1.421-2.938,3.665c0,2.305,1.113,3.695,2.971,3.695c1.792,0,2.905-1.404,2.905-3.712
		C325.08,27.406,323.967,26.018,322.142,26.018"/>
	<path clip-path="url(#SVGID_18_)" fill="#3B3D67" d="M333.491,30.925v4.147h-2.34v-4.18l-4.018-6.569h2.679l1.663,2.857
		c0.259,0.388,0.614,1.212,0.872,1.776c0.306-0.694,0.662-1.503,0.901-1.872l1.615-2.761h2.628L333.491,30.925z"/>
	<path clip-path="url(#SVGID_18_)" fill="#3B3D67" d="M89.872,55.3l2.856-8.372h1.267l2.868,8.372H89.872z M93.773,49.402
		c-0.09-0.283-0.17-0.548-0.232-0.797c-0.062-0.248-0.125-0.492-0.191-0.732h-0.037c-0.059,0.24-0.121,0.486-0.189,0.739
		c-0.063,0.252-0.139,0.507-0.221,0.763l-1.665,5.095h4.247L93.773,49.402z"/>
</g>
<rect x="98.465" y="46.929" fill="#3B3D67" width="1.055" height="8.371"/>
<polygon fill="#3B3D67" points="101.796,55.3 101.796,46.929 106.304,46.929 106.304,47.812 102.852,47.812 102.852,50.493 
	106.107,50.493 106.107,51.363 102.852,51.363 102.852,54.417 106.489,54.417 106.489,55.3 "/>
<g>
	<defs>
		<rect id="SVGID_19_" x="3.885" y="6.535" width="417.425" height="54.962"/>
	</defs>
	<clipPath id="SVGID_20_">
		<use xlink:href="#SVGID_19_"  overflow="visible"/>
	</clipPath>
	<path clip-path="url(#SVGID_20_)" fill="#3B3D67" d="M111.186,51.736v3.563h-1.055v-3.552l-2.661-4.82h1.207l1.193,2.326
		c0.166,0.313,0.312,0.608,0.441,0.879c0.128,0.273,0.257,0.557,0.388,0.845h0.027c0.115-0.272,0.244-0.554,0.386-0.837
		c0.142-0.288,0.294-0.587,0.46-0.9l1.217-2.313h1.203L111.186,51.736z"/>
	<path clip-path="url(#SVGID_20_)" fill="#3B3D67" d="M122.466,51.027c0,0.721-0.101,1.357-0.304,1.907
		c-0.203,0.551-0.482,1.013-0.833,1.38c-0.352,0.37-0.764,0.646-1.23,0.838c-0.468,0.191-0.969,0.285-1.497,0.285h-0.012
		c-0.554,0-1.062-0.104-1.521-0.311c-0.46-0.207-0.857-0.497-1.187-0.869c-0.331-0.374-0.589-0.82-0.77-1.342
		c-0.183-0.521-0.273-1.096-0.273-1.727c0-0.661,0.099-1.264,0.292-1.806c0.195-0.545,0.464-1.009,0.808-1.395
		c0.343-0.382,0.752-0.68,1.222-0.887c0.472-0.205,0.985-0.311,1.542-0.311c0.568,0,1.086,0.105,1.544,0.311
		c0.459,0.207,0.858,0.501,1.186,0.876c0.331,0.378,0.587,0.826,0.764,1.341C122.373,49.835,122.466,50.405,122.466,51.027
		 M115.943,51.362c0.016,0.425,0.086,0.825,0.211,1.211c0.123,0.388,0.304,0.728,0.536,1.027c0.23,0.297,0.509,0.535,0.829,0.714
		c0.323,0.177,0.692,0.265,1.105,0.265h0.014c0.415,0,0.782-0.082,1.107-0.253c0.322-0.17,0.597-0.399,0.825-0.691
		c0.226-0.289,0.406-0.626,0.534-1.017c0.129-0.39,0.199-0.809,0.217-1.256H115.943z M121.037,49.432
		c-0.131-0.346-0.308-0.649-0.53-0.914c-0.219-0.265-0.484-0.477-0.792-0.634c-0.312-0.156-0.665-0.234-1.064-0.234
		c-0.396,0-0.751,0.076-1.061,0.229c-0.312,0.152-0.579,0.355-0.801,0.614c-0.223,0.256-0.402,0.559-0.533,0.899
		c-0.134,0.345-0.226,0.71-0.273,1.1h5.315C121.254,50.129,121.167,49.777,121.037,49.432"/>
	<path clip-path="url(#SVGID_20_)" fill="#3B3D67" d="M127.171,51.736v3.563h-1.055v-3.552l-2.661-4.82h1.207l1.193,2.326
		c0.166,0.313,0.312,0.608,0.441,0.879c0.128,0.273,0.257,0.557,0.388,0.845h0.027c0.115-0.272,0.244-0.554,0.386-0.837
		c0.142-0.288,0.294-0.587,0.46-0.9l1.217-2.313h1.205L127.171,51.736z"/>
	<path clip-path="url(#SVGID_20_)" fill="#3B3D67" d="M136.512,55.3l-2.696-4.271c-0.297-0.472-0.579-0.945-0.843-1.417
		c-0.267-0.474-0.501-0.934-0.709-1.392l-0.039,0.013c0.033,0.531,0.056,1.063,0.064,1.603c0.008,0.538,0.012,1.154,0.012,1.851
		V55.3h-0.991v-8.371h1.151l2.712,4.271c0.312,0.497,0.592,0.967,0.836,1.404c0.244,0.439,0.468,0.877,0.665,1.315l0.025-0.012
		c-0.052-0.562-0.082-1.113-0.095-1.651c-0.01-0.536-0.016-1.133-0.016-1.79v-3.538h0.994V55.3H136.512z"/>
</g>
<polygon fill="#3B3D67" points="139.27,55.3 139.27,54.679 141.791,51.014 139.457,47.574 139.457,46.929 145.094,46.929 
	145.094,47.812 140.822,47.812 140.822,47.849 142.958,51.014 140.662,54.382 140.662,54.417 145.369,54.417 145.369,55.3 "/>
<polygon fill="#3B3D67" points="152.225,55.3 152.225,51.363 148.14,51.363 148.14,55.3 147.083,55.3 147.083,46.929 148.14,46.929 
	148.14,50.446 152.225,50.446 152.225,46.929 153.28,46.929 153.28,55.3 "/>
<g>
	<defs>
		<rect id="SVGID_21_" x="3.885" y="6.535" width="417.425" height="54.962"/>
	</defs>
	<clipPath id="SVGID_22_">
		<use xlink:href="#SVGID_21_"  overflow="visible"/>
	</clipPath>
	<path clip-path="url(#SVGID_22_)" fill="#3B3D67" d="M163.192,55.3l-2.769-4.124l-0.809,0.92V55.3h-1.054v-8.371h1.054v4.05h0.039
		c0.117-0.166,0.225-0.322,0.328-0.469c0.103-0.143,0.214-0.286,0.331-0.427l2.584-3.154h1.304l-3.032,3.552l3.28,4.819H163.192z"/>
	<path clip-path="url(#SVGID_22_)" fill="#3B3D67" d="M172.781,51.029c0,0.718-0.1,1.354-0.304,1.905
		c-0.203,0.55-0.48,1.012-0.831,1.38c-0.353,0.369-0.764,0.646-1.23,0.837c-0.47,0.192-0.969,0.285-1.499,0.285h-0.012
		c-0.554,0-1.061-0.103-1.521-0.308c-0.458-0.21-0.856-0.499-1.187-0.873c-0.328-0.372-0.587-0.818-0.77-1.341
		c-0.18-0.521-0.273-1.096-0.273-1.724c0-0.663,0.099-1.268,0.294-1.81c0.193-0.544,0.464-1.008,0.807-1.392
		c0.343-0.384,0.751-0.679,1.223-0.889c0.47-0.205,0.986-0.311,1.54-0.311c0.569,0,1.086,0.105,1.546,0.311
		c0.46,0.21,0.856,0.501,1.187,0.877c0.33,0.378,0.585,0.825,0.761,1.343C172.691,49.835,172.781,50.407,172.781,51.029
		 M171.652,51.078c0-0.423-0.055-0.84-0.162-1.248c-0.109-0.409-0.273-0.775-0.499-1.101c-0.222-0.324-0.501-0.585-0.836-0.78
		c-0.336-0.201-0.733-0.299-1.186-0.299c-0.458,0-0.854,0.098-1.195,0.291c-0.339,0.194-0.622,0.456-0.848,0.782
		c-0.228,0.328-0.398,0.701-0.511,1.125c-0.111,0.421-0.166,0.862-0.166,1.315c0,0.448,0.059,0.875,0.178,1.287
		c0.119,0.409,0.296,0.772,0.53,1.086c0.232,0.313,0.511,0.567,0.844,0.758c0.33,0.189,0.71,0.285,1.141,0.285h0.014
		c0.432,0,0.813-0.094,1.148-0.281c0.335-0.183,0.618-0.437,0.844-0.755c0.228-0.32,0.402-0.688,0.521-1.11
		C171.59,52.007,171.652,51.558,171.652,51.078"/>
</g>
<rect x="174.556" y="46.929" fill="#3B3D67" width="1.055" height="8.371"/>
<g>
	<defs>
		<rect id="SVGID_23_" x="3.885" y="6.535" width="417.425" height="54.962"/>
	</defs>
	<clipPath id="SVGID_24_">
		<use xlink:href="#SVGID_23_"  overflow="visible"/>
	</clipPath>
	<path clip-path="url(#SVGID_24_)" fill="#3B3D67" d="M183.09,55.3l-2.696-4.271c-0.297-0.472-0.579-0.945-0.843-1.417
		c-0.267-0.474-0.501-0.934-0.709-1.392l-0.037,0.013c0.031,0.531,0.054,1.063,0.062,1.603c0.008,0.538,0.012,1.154,0.012,1.851
		V55.3h-0.991v-8.371h1.151l2.712,4.271c0.313,0.497,0.592,0.967,0.836,1.404c0.244,0.439,0.468,0.877,0.665,1.315l0.025-0.012
		c-0.052-0.562-0.082-1.113-0.095-1.651c-0.01-0.536-0.016-1.133-0.016-1.79v-3.538h0.994V55.3H183.09z"/>
	<path clip-path="url(#SVGID_24_)" fill="#3B3D67" d="M193.599,50.804c0,0.421-0.068,0.825-0.199,1.211
		c-0.134,0.384-0.308,0.732-0.528,1.043c-0.219,0.31-0.474,0.573-0.759,0.789c-0.284,0.215-0.583,0.365-0.9,0.447v0.125h2.025v0.883
		h-3.117v-1.293c0.407-0.091,0.756-0.247,1.055-0.462c0.298-0.212,0.545-0.467,0.74-0.756c0.193-0.289,0.338-0.607,0.435-0.948
		c0.094-0.346,0.143-0.69,0.143-1.039c0-0.38-0.057-0.758-0.168-1.135c-0.113-0.381-0.281-0.718-0.509-1.021
		c-0.23-0.301-0.511-0.548-0.852-0.739c-0.339-0.188-0.737-0.284-1.193-0.284c-0.456,0-0.852,0.096-1.193,0.284
		c-0.338,0.191-0.622,0.438-0.849,0.739c-0.228,0.304-0.399,0.641-0.512,1.021c-0.109,0.377-0.166,0.755-0.166,1.135
		c0,0.349,0.047,0.696,0.144,1.043c0.092,0.349,0.24,0.667,0.439,0.957c0.201,0.289,0.448,0.544,0.747,0.757
		c0.298,0.216,0.645,0.366,1.043,0.448v1.293h-3.106v-0.883h2.012v-0.113c-0.331-0.082-0.641-0.232-0.93-0.451
		c-0.292-0.222-0.54-0.487-0.753-0.797c-0.208-0.311-0.378-0.659-0.503-1.043c-0.122-0.386-0.187-0.79-0.187-1.211
		c0-0.612,0.096-1.164,0.287-1.657c0.189-0.495,0.452-0.915,0.791-1.262c0.334-0.35,0.737-0.616,1.203-0.808
		c0.466-0.188,0.981-0.285,1.533-0.285c0.557,0,1.066,0.097,1.536,0.285c0.466,0.191,0.87,0.458,1.209,0.808
		c0.341,0.347,0.604,0.767,0.795,1.262C193.503,49.64,193.599,50.192,193.599,50.804"/>
	<path clip-path="url(#SVGID_24_)" fill="#3B3D67" d="M200.542,55.3l-2.696-4.271c-0.297-0.472-0.579-0.945-0.845-1.417
		c-0.265-0.474-0.499-0.934-0.707-1.392l-0.037,0.013c0.031,0.531,0.054,1.063,0.062,1.603c0.008,0.538,0.012,1.154,0.012,1.851
		V55.3h-0.991v-8.371h1.151l2.71,4.271c0.315,0.497,0.594,0.967,0.838,1.404c0.244,0.439,0.466,0.877,0.665,1.315l0.025-0.012
		c-0.052-0.562-0.082-1.113-0.095-1.651c-0.01-0.536-0.016-1.133-0.016-1.79v-3.538h0.994V55.3H200.542z"/>
</g>
<rect x="203.871" y="46.929" fill="#3B3D67" width="1.055" height="8.371"/>
<g>
	<defs>
		<rect id="SVGID_25_" x="3.885" y="6.535" width="417.425" height="54.962"/>
	</defs>
	<clipPath id="SVGID_26_">
		<use xlink:href="#SVGID_25_"  overflow="visible"/>
	</clipPath>
	<path clip-path="url(#SVGID_26_)" fill="#3B3D67" d="M211.832,55.3l-2.77-4.124l-0.808,0.92V55.3H207.2v-8.371h1.054v4.05h0.039
		c0.117-0.166,0.225-0.322,0.328-0.469c0.103-0.143,0.214-0.286,0.331-0.427l2.584-3.154h1.304l-3.032,3.552l3.28,4.819H211.832z"/>
</g>
<polygon fill="#3B3D67" points="219.422,55.3 219.422,51.363 215.337,51.363 215.337,55.3 214.281,55.3 214.281,46.929 
	215.337,46.929 215.337,50.446 219.422,50.446 219.422,46.929 220.479,46.929 220.479,55.3 "/>
<polygon fill="#3B3D67" points="222.167,55.3 222.167,54.679 224.688,51.014 222.354,47.574 222.354,46.929 227.99,46.929 
	227.99,47.812 223.719,47.812 223.719,47.849 225.855,51.014 223.559,54.382 223.559,54.417 228.266,54.417 228.266,55.3 "/>
<g>
	<defs>
		<rect id="SVGID_27_" x="3.885" y="6.535" width="417.425" height="54.962"/>
	</defs>
	<clipPath id="SVGID_28_">
		<use xlink:href="#SVGID_27_"  overflow="visible"/>
	</clipPath>
	<path clip-path="url(#SVGID_28_)" fill="#3B3D67" d="M237.63,55.3l-2.769-4.124l-0.81,0.92V55.3h-1.054v-8.371h1.054v4.05h0.039
		c0.117-0.166,0.226-0.322,0.328-0.469c0.104-0.143,0.214-0.286,0.331-0.427l2.584-3.154h1.304l-3.031,3.552l3.279,4.819H237.63z"/>
	<path clip-path="url(#SVGID_28_)" fill="#3B3D67" d="M245.307,55.3l-0.906-2.645h-2.98l-0.881,2.645h-1.095l2.856-8.372h1.267
		l2.868,8.372H245.307z M243.346,49.402c-0.09-0.275-0.168-0.538-0.23-0.79c-0.062-0.253-0.127-0.499-0.192-0.739h-0.037
		c-0.058,0.24-0.119,0.486-0.179,0.739c-0.062,0.252-0.142,0.507-0.231,0.763l-0.844,2.447h2.558L243.346,49.402z"/>
</g>
<rect x="248.039" y="46.929" fill="#3B3D67" width="1.055" height="8.371"/>
<g>
	<defs>
		<rect id="SVGID_29_" x="3.885" y="6.535" width="417.425" height="54.962"/>
	</defs>
	<clipPath id="SVGID_30_">
		<use xlink:href="#SVGID_29_"  overflow="visible"/>
	</clipPath>
	<path clip-path="url(#SVGID_30_)" fill="#3B3D67" d="M259.615,55.3l-0.906-2.645h-2.981l-0.88,2.645h-1.095l2.856-8.372h1.267
		l2.868,8.372H259.615z M257.654,49.402c-0.09-0.275-0.168-0.538-0.23-0.79c-0.063-0.253-0.127-0.499-0.192-0.739h-0.037
		c-0.058,0.24-0.119,0.486-0.179,0.739c-0.065,0.252-0.142,0.507-0.231,0.763l-0.844,2.447h2.558L257.654,49.402z"/>
	<path clip-path="url(#SVGID_30_)" fill="#3B3D67" d="M267.552,55.3l-2.695-4.271c-0.298-0.472-0.579-0.945-0.844-1.417
		c-0.267-0.474-0.501-0.934-0.709-1.392l-0.037,0.013c0.031,0.531,0.055,1.063,0.063,1.603c0.008,0.538,0.012,1.154,0.012,1.851
		V55.3h-0.991v-8.371h1.151l2.712,4.271c0.313,0.497,0.592,0.967,0.836,1.404c0.244,0.439,0.468,0.877,0.665,1.315l0.025-0.012
		c-0.053-0.562-0.082-1.113-0.096-1.651c-0.01-0.536-0.016-1.133-0.016-1.79v-3.538h0.994V55.3H267.552z"/>
	<path clip-path="url(#SVGID_30_)" fill="#3B3D67" d="M276.109,55.3l-0.906-2.645h-2.98l-0.88,2.645h-1.096l2.856-8.372h1.271
		l2.864,8.372H276.109z M274.148,49.402c-0.09-0.275-0.168-0.538-0.229-0.79c-0.063-0.253-0.128-0.499-0.193-0.739h-0.037
		c-0.057,0.24-0.119,0.486-0.178,0.739c-0.063,0.252-0.143,0.507-0.232,0.763l-0.844,2.447h2.558L274.148,49.402z"/>
</g>
<polygon fill="#3B3D67" points="283.984,55.3 283.984,47.833 279.899,47.833 279.899,55.3 278.844,55.3 278.844,46.929 
	285.04,46.929 285.04,55.3 "/>
<polygon fill="#3B3D67" points="289.96,47.823 289.96,55.299 288.905,55.299 288.905,47.823 286.345,47.823 286.345,46.928 
	292.532,46.928 292.532,47.823 "/>
<g>
	<defs>
		<rect id="SVGID_31_" x="3.885" y="6.535" width="417.425" height="54.962"/>
	</defs>
	<clipPath id="SVGID_32_">
		<use xlink:href="#SVGID_31_"  overflow="visible"/>
	</clipPath>
	<path clip-path="url(#SVGID_32_)" fill="#3B3D67" d="M296.754,51.736v3.563h-1.055v-3.552l-2.657-4.82h1.203l1.192,2.326
		c0.166,0.313,0.313,0.608,0.441,0.879c0.128,0.273,0.257,0.557,0.388,0.845h0.027c0.115-0.272,0.244-0.554,0.386-0.837
		c0.143-0.288,0.294-0.587,0.46-0.9l1.217-2.313h1.203L296.754,51.736z"/>
</g>
<path fill="#3B3D67" d="M300.643,46.929h4.944v0.883h-4.944V46.929z M300.643,54.418h4.944v0.883h-4.944V54.418z M301.14,50.493
	h3.926v0.87h-3.926V50.493z"/>
<rect x="307.35" y="46.929" fill="#3B3D67" width="1.056" height="8.371"/>
<g>
	<defs>
		<rect id="SVGID_33_" x="3.885" y="6.535" width="417.425" height="54.962"/>
	</defs>
	<clipPath id="SVGID_34_">
		<use xlink:href="#SVGID_33_"  overflow="visible"/>
	</clipPath>
	<path clip-path="url(#SVGID_34_)" fill="#3B3D67" d="M315.907,55.3l-0.906-2.645h-2.98L311.14,55.3h-1.095l2.856-8.372h1.267
		l2.868,8.372H315.907z M313.946,49.402c-0.09-0.275-0.168-0.538-0.23-0.79c-0.062-0.253-0.127-0.499-0.192-0.739h-0.037
		c-0.058,0.24-0.119,0.486-0.178,0.739c-0.063,0.252-0.143,0.507-0.232,0.763l-0.844,2.447h2.558L313.946,49.402z"/>
	<path clip-path="url(#SVGID_34_)" fill="#3B3D67" d="M323.273,55.3l-2.771-4.124l-0.806,0.92V55.3h-1.057v-8.371h1.057v4.05h0.037
		c0.116-0.166,0.225-0.322,0.327-0.469c0.104-0.143,0.215-0.286,0.331-0.427l2.582-3.154h1.307l-3.032,3.552l3.28,4.819H323.273z"/>
</g>
<polygon fill="#3B3D67" points="330.861,55.3 330.861,51.363 326.776,51.363 326.776,55.3 325.721,55.3 325.721,46.929 
	326.776,46.929 326.776,50.446 330.861,50.446 330.861,46.929 331.919,46.929 331.919,55.3 "/>
<polygon fill="#3B3D67" points="333.607,55.3 333.607,54.679 336.129,51.014 333.795,47.574 333.795,46.929 339.432,46.929 
	339.432,47.812 335.16,47.812 335.16,47.849 337.297,51.014 335,54.382 335,54.417 339.705,54.417 339.705,55.3 "/>
<polygon fill="#3B3D67" points="349.58,55.3 349.58,47.833 345.495,47.833 345.495,55.3 344.439,55.3 344.439,46.929 
	350.637,46.929 350.637,55.3 "/>
<g>
	<defs>
		<rect id="SVGID_35_" x="3.885" y="6.535" width="417.425" height="54.962"/>
	</defs>
	<clipPath id="SVGID_36_">
		<use xlink:href="#SVGID_35_"  overflow="visible"/>
	</clipPath>
	<path clip-path="url(#SVGID_36_)" fill="#3B3D67" d="M358.126,55.3l-0.906-2.645h-2.981l-0.88,2.645h-1.095l2.856-8.372h1.267
		l2.868,8.372H358.126z M356.165,49.402c-0.091-0.275-0.168-0.538-0.23-0.79c-0.062-0.253-0.127-0.499-0.192-0.739h-0.037
		c-0.058,0.24-0.119,0.486-0.179,0.739c-0.062,0.252-0.142,0.507-0.232,0.763l-0.843,2.447h2.558L356.165,49.402z"/>
</g>
<rect x="360.859" y="46.929" fill="#3B3D67" width="1.055" height="8.371"/>
<g>
	<defs>
		<rect id="SVGID_37_" x="3.885" y="6.535" width="417.425" height="54.962"/>
	</defs>
	<clipPath id="SVGID_38_">
		<use xlink:href="#SVGID_37_"  overflow="visible"/>
	</clipPath>
	<path clip-path="url(#SVGID_38_)" fill="#3B3D67" d="M363.554,55.3l2.856-8.372h1.267l2.868,8.372H363.554z M367.455,49.402
		c-0.09-0.283-0.17-0.548-0.232-0.797c-0.062-0.248-0.125-0.492-0.19-0.732h-0.039c-0.057,0.24-0.119,0.486-0.188,0.739
		c-0.063,0.252-0.141,0.507-0.221,0.763l-1.665,5.095h4.247L367.455,49.402z"/>
</g>
<rect x="372.15" y="46.929" fill="#3B3D67" width="1.055" height="8.371"/>
<g>
	<defs>
		<rect id="SVGID_39_" x="3.885" y="6.535" width="417.425" height="54.962"/>
	</defs>
	<clipPath id="SVGID_40_">
		<use xlink:href="#SVGID_39_"  overflow="visible"/>
	</clipPath>
	<path clip-path="url(#SVGID_40_)" fill="#3B3D67" d="M380.706,55.3l-0.906-2.645h-2.98l-0.88,2.645h-1.096l2.856-8.372h1.267
		l2.868,8.372H380.706z M378.745,49.402c-0.09-0.275-0.168-0.538-0.23-0.79c-0.062-0.253-0.127-0.499-0.192-0.739h-0.037
		c-0.057,0.24-0.119,0.486-0.178,0.739c-0.063,0.252-0.143,0.507-0.232,0.763l-0.844,2.447h2.558L378.745,49.402z"/>
</g>
<polygon fill="#3B3D67" points="386.098,47.823 386.098,55.299 385.043,55.299 385.043,47.823 382.482,47.823 382.482,46.928 
	388.67,46.928 388.67,47.823 "/>
<g>
	<defs>
		<rect id="SVGID_41_" x="3.885" y="6.535" width="417.425" height="54.962"/>
	</defs>
	<clipPath id="SVGID_42_">
		<use xlink:href="#SVGID_41_"  overflow="visible"/>
	</clipPath>
	<path clip-path="url(#SVGID_42_)" fill="#3B3D67" d="M395.104,49.301c0,0.38-0.056,0.719-0.169,1.02
		c-0.109,0.297-0.275,0.554-0.49,0.77c-0.29,0.305-0.652,0.535-1.093,0.689c-0.437,0.151-0.924,0.229-1.455,0.229
		c-0.164,0-0.321-0.006-0.47-0.012c-0.148-0.01-0.286-0.029-0.409-0.063V55.3h-1.055V47.03c0.263-0.043,0.565-0.08,0.904-0.113
		c0.342-0.033,0.724-0.049,1.154-0.049c0.532,0,0.99,0.061,1.38,0.18c0.391,0.119,0.71,0.29,0.97,0.516
		c0.221,0.197,0.401,0.443,0.532,0.739C395.037,48.595,395.104,48.928,395.104,49.301 M394.035,49.364
		c0-0.565-0.185-0.981-0.548-1.255c-0.363-0.274-0.844-0.41-1.438-0.41c-0.241,0-0.45,0.01-0.629,0.03
		c-0.179,0.022-0.313,0.041-0.402,0.058v3.276c0.113,0.043,0.248,0.07,0.402,0.082c0.151,0.013,0.322,0.019,0.503,0.019
		c0.664,0,1.181-0.154,1.553-0.466C393.849,50.387,394.035,49.942,394.035,49.364"/>
</g>
<rect x="396.918" y="46.929" fill="#3B3D67" width="1.055" height="8.371"/>
<g>
	<defs>
		<rect id="SVGID_43_" x="3.885" y="6.535" width="417.425" height="54.962"/>
	</defs>
	<clipPath id="SVGID_44_">
		<use xlink:href="#SVGID_43_"  overflow="visible"/>
	</clipPath>
	<path clip-path="url(#SVGID_44_)" fill="#3B3D67" d="M404.879,55.3l-2.771-4.124l-0.808,0.92V55.3h-1.055v-8.371h1.055v4.05h0.039
		c0.117-0.166,0.225-0.322,0.328-0.469c0.103-0.143,0.214-0.286,0.331-0.427l2.584-3.154h1.304l-3.032,3.552l3.28,4.819H404.879z"/>
</g>
<polygon fill="#3B3D67" points="412.467,55.3 412.467,51.363 408.382,51.363 408.382,55.3 407.326,55.3 407.326,46.929 
	408.382,46.929 408.382,50.446 412.467,50.446 412.467,46.929 413.524,46.929 413.524,55.3 "/>
<polygon fill="#3B3D67" points="415.4,46.928 415.4,47.575 417.734,51.013 415.214,54.678 415.214,55.3 421.312,55.3 
	421.312,54.419 416.605,54.419 416.605,54.382 418.902,51.013 416.766,47.85 416.766,47.811 421.038,47.811 421.038,46.928 "/>
</svg>
